<?xml version="1.0" standalone="no"?>
<!DOCTYPE svg PUBLIC "-//W3C//DTD SVG 20010904//EN"
 "http://www.w3.org/TR/2001/REC-SVG-20010904/DTD/svg10.dtd">
<svg version="1.0" xmlns="http://www.w3.org/2000/svg"
 width="500.000000pt" height="500.000000pt" viewBox="0 0 500.000000 500.000000"
 preserveAspectRatio="xMidYMid meet">

<g transform="translate(0.000000,500.000000) scale(0.100000,-0.100000)"
fill="#000000" stroke="none">
<path d="M876 3300 c-35 -11 -63 -36 -84 -75 -14 -25 -16 -66 -17 -235 0 -194
-1 -207 -23 -247 -28 -53 -86 -93 -136 -95 -24 -1 -40 -7 -46 -18 -12 -23 -4
-30 35 -30 50 0 118 -50 146 -106 23 -47 24 -59 25 -254 1 -230 7 -255 68
-284 41 -19 186 -22 204 -4 23 23 11 28 -78 28 -84 0 -92 2 -121 28 -40 36
-47 79 -38 232 8 123 0 214 -23 270 -19 45 -63 97 -89 105 -18 6 -16 10 22 47
76 74 84 104 85 335 0 223 5 244 57 263 16 5 65 10 108 10 72 0 79 2 79 20 0
18 -6 20 -72 19 -40 0 -86 -5 -102 -9z"/>
<path d="M3946 3302 c-13 -21 16 -30 101 -33 84 -4 95 -6 119 -31 l27 -26 1
-209 c1 -237 8 -267 85 -341 l40 -39 -23 -11 c-31 -14 -72 -68 -89 -118 -23
-63 -27 -121 -19 -249 9 -162 3 -201 -37 -237 -29 -26 -37 -28 -121 -28 -90 0
-97 -3 -81 -29 13 -21 187 -11 222 12 48 32 54 64 51 267 -3 197 3 237 49 301
25 36 87 69 129 69 27 0 31 3 28 23 -2 18 -11 23 -48 27 -57 7 -104 40 -133
93 -21 40 -22 54 -22 247 0 186 -2 208 -20 239 -36 62 -66 76 -165 78 -49 2
-91 -1 -94 -5z"/>
<path d="M2019 2979 c-17 -33 3 -69 39 -69 33 0 52 16 52 45 0 29 -19 45 -52
45 -18 0 -31 -7 -39 -21z"/>
<path d="M1610 2905 l0 -35 60 0 60 0 0 -170 0 -170 40 0 40 0 0 170 0 169 58
3 c56 3 57 3 60 36 l3 32 -160 0 -161 0 0 -35z"/>
<path d="M2304 2831 c-97 -59 -111 -197 -29 -270 54 -47 145 -54 195 -13 19
16 20 19 5 40 -14 18 -20 20 -37 11 -35 -19 -90 -13 -110 11 -26 32 -25 119 3
154 22 28 64 35 100 15 16 -8 25 -7 40 7 27 24 24 33 -16 50 -48 20 -114 18
-151 -5z"/>
<path d="M2590 2828 c-58 -40 -75 -72 -75 -143 0 -69 15 -99 69 -139 36 -28
130 -29 170 -3 26 17 26 20 13 40 -9 12 -21 20 -29 18 -7 -3 -34 -7 -59 -9
-40 -3 -49 0 -63 19 -24 35 -21 120 5 153 22 28 64 35 100 15 16 -8 25 -7 40
7 27 24 24 33 -16 50 -52 21 -116 18 -155 -8z"/>
<path d="M2868 2835 c-56 -31 -87 -122 -68 -197 27 -102 126 -144 228 -98 39
18 42 21 30 40 -10 16 -19 20 -38 15 -68 -17 -85 -16 -113 5 -15 12 -27 30
-27 41 0 17 8 19 100 19 l100 0 0 41 c0 54 -26 107 -64 130 -37 23 -110 24
-148 4z m112 -55 c11 -11 20 -31 20 -45 0 -24 -3 -25 -60 -25 -56 0 -60 2 -60
23 0 27 9 40 35 55 29 16 42 15 65 -8z"/>
<path d="M3254 2816 l-33 -33 -6 28 c-6 28 -9 29 -61 29 -51 0 -54 -2 -54 -24
0 -18 6 -25 23 -28 21 -3 22 -7 22 -103 0 -73 -3 -100 -12 -101 -7 -1 -17 -2
-23 -3 -5 0 -10 -12 -10 -26 0 -25 0 -25 96 -25 l95 0 -3 28 c-3 23 -7 27 -30
25 -28 -2 -28 -1 -28 58 0 65 18 112 49 129 28 15 31 13 31 -20 0 -27 3 -30
30 -30 26 0 30 4 30 28 0 15 3 44 6 65 l7 37 -48 0 c-40 0 -52 -5 -81 -34z"/>
<path d="M1950 2815 c0 -22 4 -25 40 -25 l40 0 0 -99 0 -100 -42 -3 c-39 -3
-43 -6 -46 -30 l-3 -28 131 0 131 0 -3 28 c-3 24 -7 27 -45 30 l-43 3 0 125 0
124 -80 0 c-79 0 -80 0 -80 -25z"/>
<path d="M2146 2378 c-36 -51 -9 -128 44 -128 16 0 32 4 35 10 4 6 -5 7 -23 4
-23 -5 -33 -1 -46 17 -9 13 -16 33 -16 44 0 11 7 31 16 44 13 18 23 22 46 17
18 -3 27 -2 23 4 -12 19 -63 11 -79 -12z"/>
<path d="M2262 2354 c-15 -10 -22 -25 -22 -48 0 -37 15 -56 45 -56 12 0 26 5
33 12 17 17 15 74 -4 92 -19 20 -24 20 -52 0z m54 -31 c13 -49 -34 -84 -56
-43 -18 33 -5 70 25 70 18 0 26 -7 31 -27z"/>
<path d="M2357 2362 c-14 -3 -17 -14 -15 -60 2 -56 2 -56 5 -10 2 25 11 52 19
58 16 14 16 13 18 -52 2 -58 16 -57 16 0 0 40 4 52 15 52 11 0 15 -12 15 -50
0 -27 4 -50 9 -50 12 0 12 82 1 100 -8 13 -48 18 -83 12z"/>
<path d="M2490 2360 c-8 -5 -18 -6 -22 -4 -4 3 -7 -30 -7 -73 1 -43 4 -66 6
-52 3 22 8 25 33 21 25 -4 31 0 40 24 20 51 -14 106 -50 84z m35 -55 c0 -36
-2 -40 -25 -40 -20 0 -26 6 -28 28 -5 42 5 59 30 55 20 -3 23 -9 23 -43z"/>
<path d="M2581 2361 c-11 -7 -7 -10 14 -13 40 -4 41 -22 3 -33 -26 -8 -33 -15
-33 -35 0 -23 4 -25 41 -25 l41 -1 -5 46 c-2 25 -11 51 -20 58 -19 14 -22 15
-41 3z m47 -73 c-4 -30 -48 -39 -48 -10 0 24 8 32 32 32 14 0 19 -6 16 -22z"/>
<path d="M2720 2360 c0 -5 5 -10 10 -10 6 0 10 -22 10 -50 0 -27 5 -50 10 -50
14 0 12 94 -2 108 -15 15 -28 16 -28 2z"/>
<path d="M2670 2305 c0 -30 5 -55 10 -55 6 0 10 19 10 43 0 24 5 48 12 55 9 9
7 12 -10 12 -20 0 -22 -5 -22 -55z"/>
<path d="M2781 2353 c-1 -7 8 -35 19 -62 l19 -50 -22 -16 c-17 -12 -18 -15 -5
-15 9 0 20 6 25 13 13 20 52 131 48 135 -4 5 -35 -64 -36 -82 0 -6 -11 12 -24
39 -13 28 -24 45 -24 38z"/>
</g>
</svg>
